Coordinates
version=1
nRows=8
nColumns=40
inDegrees=yes

Units are S.I. units (second, meters, Newtons, ...)
If the header above contains a line with 'inDegrees', this indicates whether rotational values are in degrees (yes) or radians (no).

endheader
time	pelvis_tilt	pelvis_list	pelvis_rotation	pelvis_tx	pelvis_ty	pelvis_tz	hip_flexion_r	hip_adduction_r	hip_rotation_r	knee_angle_r	knee_angle_r_beta	ankle_angle_r	subtalar_angle_r	mtp_angle_r	hip_flexion_l	hip_adduction_l	hip_rotation_l	knee_angle_l	knee_angle_l_beta	ankle_angle_l	subtalar_angle_l	mtp_angle_l	lumbar_extension	lumbar_bending	lumbar_rotation	arm_flex_r	arm_add_r	arm_rot_r	elbow_flex_r	pro_sup_r	wrist_flex_r	wrist_dev_r	arm_flex_l	arm_add_l	arm_rot_l	elbow_flex_l	pro_sup_l	wrist_flex_l	wrist_dev_l
      0.69600000	     15.18208293	     -2.40596228	     -2.54234255	      0.93866421	      0.93353185	     -0.28862447	    -29.66973080	      3.05368942	     -0.99914864	     28.45874992	      0.49669889	    -14.67455592	      0.00000000	      0.00000000	     16.38948715	     -0.71999130	      0.99295551	     25.03175895	      0.43688661	    -18.21788460	      0.00000000	      0.00000000	    -28.92054309	     -0.56130190	      7.17773022	     10.96286895	    -18.62312481	     14.99633370	     46.12549875	     73.08293193	      0.00000000	      0.00000000	      1.65864182	    -22.64113384	     23.60593743	     43.14009004	     84.44087176	      0.00000000	      0.00000000
      0.70000000	     15.31010730	     -2.26040993	     -2.19912228	      0.94512112	      0.93391077	     -0.28914882	    -29.65657246	      2.98560478	     -1.23141716	     29.00904621	      0.50630337	    -16.24399671	      0.00000000	      0.00000000	     16.29088518	     -0.37205681	      1.60437309	     25.83507810	      0.45090718	    -17.90449678	      0.00000000	      0.00000000	    -29.01303080	     -0.62227769	      6.64862794	     10.71185416	    -18.46445587	     14.69621381	     46.27623065	     73.10749180	      0.00000000	      0.00000000	      1.65302892	    -22.72656321	     23.59791769	     42.99148736	     84.40997268	      0.00000000	      0.00000000
      0.70400000	     15.49399460	     -2.08097934	     -2.08142139	      0.95150426	      0.93449132	     -0.28941561	    -29.65185021	      2.79787013	     -1.10525512	     29.66908315	      0.51782319	    -17.58556727	      0.00000000	      0.00000000	     16.06467312	     -0.03409784	      2.03331570	     26.51974775	      0.46285691	    -17.72047481	      0.00000000	      0.00000000	    -29.16008411	     -0.81160564	      6.27042722	     10.55570201	    -18.26914718	     14.49115094	     46.29382194	     73.11715456	      0.00000000	      0.00000000	      1.62180072	    -22.80877241	     23.62388110	     42.89969819	     84.41332362	      0.00000000	      0.00000000
      0.70800000	     15.66661138	     -1.90892911	     -1.83180569	      0.95861557	      0.93504250	     -0.28970764	    -29.64726252	      2.55443464	     -1.78814112	     30.22523581	      0.52752988	    -19.74998069	      0.00000000	      0.00000000	     15.81048626	      0.29361424	      2.40640204	     27.28205189	      0.47616163	    -17.01814932	      0.00000000	      0.00000000	    -29.19639250	     -0.94622204	      5.80958513	     10.10966311	    -18.06870748	     14.07038343	     46.51886011	     73.16724723	      0.00000000	      0.00000000	      1.49014122	    -22.92365492	     23.56292094	     42.79535641	     84.35136065	      0.00000000	      0.00000000
      0.71200000	     15.81741990	     -1.70534566	     -1.66563616	      0.96553745	      0.93569948	     -0.29015902	    -29.63173832	      2.30859913	     -1.96755233	     30.75557478	      0.53678604	    -21.58917726	      0.00000000	      0.00000000	     15.52781070	      0.68630732	      2.83785041	     27.90836076	      0.48709278	    -16.60238580	      0.00000000	      0.00000000	    -29.24942889	     -1.11787042	      5.43978628	      9.76049066	    -17.91087896	     13.72856714	     46.61921679	     73.25058196	      0.00000000	      0.00000000	      1.44841409	    -22.97272186	     23.55643463	     42.63211114	     84.26291412	      0.00000000	      0.00000000
      0.71600000	     16.03913427	     -1.57256616	     -1.53915717	      0.97208218	      0.93643878	     -0.29025015	    -29.62016945	      2.17315568	     -1.91119356	     31.38939737	      0.54784833	    -23.09734191	      0.00000000	      0.00000000	     15.16421042	      0.97281740	      3.22748378	     28.47750676	      0.49702626	    -16.42674663	      0.00000000	      0.00000000	    -29.42241742	     -1.26593594	      5.07690129	      9.54826738	    -17.73441239	     13.52836140	     46.71468838	     73.28095882	      0.00000000	      0.00000000	      1.41694364	    -23.09139082	     23.63662899	     42.50214345	     84.24225716	      0.00000000	      0.00000000
      0.72000000	     16.17817973	     -1.38378643	     -1.14193712	      0.97907853	      0.93705621	     -0.29060351	    -29.60182176	      2.04859905	     -2.47489573	     31.80436963	      0.55509097	    -25.15704042	      0.00000000	      0.00000000	     14.87491486	      1.36348912	      3.78052753	     29.06966240	      0.50736132	    -15.94445429	      0.00000000	      0.00000000	    -29.44893838	     -1.35637769	      4.53579499	      9.08074535	    -17.49837807	     13.08852134	     46.95668566	     73.26101248	      0.00000000	      0.00000000	      1.35920828	    -23.28877955	     23.83039697	     42.48893055	     84.13664025	      0.00000000	      0.00000000
      0.72400000	     16.37502954	     -1.26345958	     -0.98947809	      0.98567509	      0.93788616	     -0.29055724	    -29.56554368	      2.02892515	     -2.10237518	     32.45360028	      0.56642218	    -26.04593067	      0.00000000	      0.00000000	     14.45905820	      1.57604646	      4.00327831	     29.48853518	      0.51467203	    -15.77044255	      0.00000000	      0.00000000	    -29.57006044	     -1.48699891	      4.12992041	      8.88044457	    -17.27749423	     12.97699374	     46.99869957	     73.26996060	      0.00000000	      0.00000000	      1.33543740	    -23.43124192	     23.84544098	     42.31638389	     84.09220708	      0.00000000	      0.00000000
